<mxfile host="Electron" agent="Mozilla/5.0 (Windows NT 10.0; Win64; x64) AppleWebKit/537.36 (KHTML, like Gecko) draw.io/28.0.4 Chrome/138.0.7204.97 Electron/37.2.1 Safari/537.36" version="28.0.4">
  <diagram name="Page-1" id="hGHWxV67bgd-J47hPz9P">
    <mxGraphModel dx="1572" dy="1128" grid="1" gridSize="10" guides="1" tooltips="1" connect="1" arrows="0" fold="1" page="1" pageScale="1" pageWidth="1200" pageHeight="1920" background="none" math="0" shadow="0">
      <root>
        <mxCell id="0" />
        <mxCell id="1" parent="0" />
        <mxCell id="jgEByWnkUjhd4WbjguH3-2" value="" style="rounded=0;whiteSpace=wrap;html=1;dashed=1;labelBackgroundColor=default;labelBorderColor=none;fontColor=none;noLabel=1;fillColor=none;" parent="1" vertex="1">
          <mxGeometry x="350" y="120" width="520" height="520" as="geometry" />
        </mxCell>
        <mxCell id="jgEByWnkUjhd4WbjguH3-3" value="" style="rounded=0;rotation=90;dashed=1;fillColor=none;" parent="1" vertex="1">
          <mxGeometry x="-63.43" y="293.44" width="516.87" height="170" as="geometry" />
        </mxCell>
        <mxCell id="jgEByWnkUjhd4WbjguH3-4" value="" style="rounded=0;whiteSpace=wrap;html=1;rotation=90;dashed=1;fillColor=none;" parent="1" vertex="1">
          <mxGeometry x="755" y="293.44" width="520" height="170" as="geometry" />
        </mxCell>
        <mxCell id="jgEByWnkUjhd4WbjguH3-5" value="&lt;h2&gt;&lt;font style=&quot;font-size: 19px;&quot;&gt;Sources&lt;/font&gt;&lt;/h2&gt;" style="rounded=0;whiteSpace=wrap;html=1;strokeColor=#FFFFFF;" parent="1" vertex="1">
          <mxGeometry x="130" y="100" width="120" height="40" as="geometry" />
        </mxCell>
        <mxCell id="jgEByWnkUjhd4WbjguH3-6" value="&lt;h2&gt;&lt;font style=&quot;font-size: 19px;&quot;&gt;Consume&lt;/font&gt;&lt;/h2&gt;" style="rounded=0;whiteSpace=wrap;html=1;strokeColor=#FFFFFF;" parent="1" vertex="1">
          <mxGeometry x="955" y="95" width="120" height="40" as="geometry" />
        </mxCell>
        <mxCell id="jgEByWnkUjhd4WbjguH3-7" value="&lt;h2&gt;&lt;font style=&quot;font-size: 18px;&quot;&gt;DATA WAREHOUSE&lt;/font&gt;&lt;/h2&gt;" style="rounded=0;whiteSpace=wrap;html=1;fillColor=default;strokeColor=light-dark(#ffffff, #ededed);" parent="1" vertex="1">
          <mxGeometry x="505" y="90" width="190" height="50" as="geometry" />
        </mxCell>
        <mxCell id="jgEByWnkUjhd4WbjguH3-8" value="" style="rounded=0;whiteSpace=wrap;html=1;rotation=90;fillColor=none;fontColor=#000000;strokeColor=#B09500;" parent="1" vertex="1">
          <mxGeometry x="265.86" y="342.16" width="385.3" height="125" as="geometry" />
        </mxCell>
        <mxCell id="jgEByWnkUjhd4WbjguH3-9" value="" style="rounded=0;whiteSpace=wrap;html=1;rotation=90;fillColor=none;gradientColor=#b3b3b3;strokeColor=#666666;" parent="1" vertex="1">
          <mxGeometry x="430.25" y="341.49999999999994" width="380.88" height="125" as="geometry" />
        </mxCell>
        <mxCell id="jgEByWnkUjhd4WbjguH3-10" value="" style="rounded=0;whiteSpace=wrap;html=1;rotation=90;fillColor=none;fontColor=#000000;strokeColor=#BD7000;" parent="1" vertex="1">
          <mxGeometry x="598.13" y="350" width="383.75" height="115" as="geometry" />
        </mxCell>
        <mxCell id="jgEByWnkUjhd4WbjguH3-11" value="&lt;h3&gt;&lt;b&gt;BRONZE LAYER&lt;/b&gt;&lt;/h3&gt;" style="rounded=0;whiteSpace=wrap;html=1;fillColor=#fff2cc;strokeColor=#d6b656;gradientColor=#ffd966;opacity=60;" parent="1" vertex="1">
          <mxGeometry x="395" y="160" width="125" height="40" as="geometry" />
        </mxCell>
        <mxCell id="jgEByWnkUjhd4WbjguH3-12" value="&lt;h3&gt;&lt;span&gt;SILVER LAYER&lt;/span&gt;&lt;/h3&gt;" style="rounded=0;whiteSpace=wrap;html=1;fillColor=#f5f5f5;gradientColor=#b3b3b3;strokeColor=#666666;fontStyle=1;opacity=30;" parent="1" vertex="1">
          <mxGeometry x="565" y="160" width="115" height="40" as="geometry" />
        </mxCell>
        <mxCell id="jgEByWnkUjhd4WbjguH3-14" value="&lt;h3&gt;GOLD LAYER&lt;/h3&gt;" style="rounded=0;whiteSpace=wrap;html=1;fillColor=#ffcd28;strokeColor=#d79b00;gradientColor=#ffa500;labelBackgroundColor=none;labelBorderColor=none;textShadow=1;fontStyle=1;align=center;opacity=40;" parent="1" vertex="1">
          <mxGeometry x="730" y="160" width="120" height="40" as="geometry" />
        </mxCell>
        <mxCell id="jgEByWnkUjhd4WbjguH3-15" value="&lt;font style=&quot;font-size: 15px;&quot;&gt;&lt;b&gt;CRM&lt;/b&gt;&lt;/font&gt;" style="image;aspect=fixed;html=1;points=[];align=center;fontSize=12;image=img/lib/azure2/general/Folder_Blank.svg;" parent="1" vertex="1">
          <mxGeometry x="162.82" y="237" width="59.14" height="48" as="geometry" />
        </mxCell>
        <mxCell id="jgEByWnkUjhd4WbjguH3-16" value="" style="image;aspect=fixed;html=1;points=[];align=center;fontSize=12;image=img/lib/azure2/general/File.svg;" parent="1" vertex="1">
          <mxGeometry x="202.82" y="265" width="24.35" height="30" as="geometry" />
        </mxCell>
        <mxCell id="jgEByWnkUjhd4WbjguH3-17" value="&lt;b&gt;&lt;font style=&quot;font-size: 15px;&quot;&gt;ERP&lt;/font&gt;&lt;/b&gt;" style="image;aspect=fixed;html=1;points=[];align=center;fontSize=12;image=img/lib/azure2/general/Folder_Blank.svg;" parent="1" vertex="1">
          <mxGeometry x="162.82" y="380" width="59.14" height="48" as="geometry" />
        </mxCell>
        <mxCell id="jgEByWnkUjhd4WbjguH3-18" value="" style="image;aspect=fixed;html=1;points=[];align=center;fontSize=12;image=img/lib/azure2/general/File.svg;" parent="1" vertex="1">
          <mxGeometry x="202.82" y="408" width="24.35" height="30" as="geometry" />
        </mxCell>
        <mxCell id="jgEByWnkUjhd4WbjguH3-28" value="&lt;font style=&quot;font-size: 13px;&quot;&gt;&lt;b style=&quot;&quot;&gt;Object type&lt;/b&gt; : CSV files&lt;/font&gt;&lt;div&gt;&lt;font style=&quot;font-size: 13px;&quot;&gt;&lt;br&gt;&lt;/font&gt;&lt;div&gt;&lt;span style=&quot;background-color: transparent; color: light-dark(rgb(0, 0, 0), rgb(255, 255, 255));&quot;&gt;&lt;font style=&quot;font-size: 13px;&quot;&gt;&lt;b style=&quot;&quot;&gt;Interface &lt;/b&gt;: files in folder&amp;nbsp;&lt;/font&gt;&lt;/span&gt;&lt;/div&gt;&lt;/div&gt;" style="text;html=1;align=center;verticalAlign=middle;whiteSpace=wrap;rounded=0;" parent="1" vertex="1">
          <mxGeometry x="110" y="520" width="170" height="70" as="geometry" />
        </mxCell>
        <mxCell id="jgEByWnkUjhd4WbjguH3-29" value="&lt;b&gt;Raw data&lt;/b&gt;" style="html=1;verticalLabelPosition=bottom;align=center;labelBackgroundColor=#ffffff;verticalAlign=top;strokeWidth=2;strokeColor=#d6b656;shadow=0;dashed=0;shape=mxgraph.ios7.icons.data;fillColor=#fff2cc;gradientColor=#ffd966;" parent="1" vertex="1">
          <mxGeometry x="430.25" y="282.16" width="54.5" height="60" as="geometry" />
        </mxCell>
        <mxCell id="jgEByWnkUjhd4WbjguH3-30" value="&lt;b&gt;Clean standarized&amp;nbsp;&lt;/b&gt;" style="html=1;verticalLabelPosition=bottom;align=center;labelBackgroundColor=#ffffff;verticalAlign=top;strokeWidth=2;strokeColor=#666666;shadow=0;dashed=0;shape=mxgraph.ios7.icons.data;fillColor=#f5f5f5;gradientColor=#b3b3b3;" parent="1" vertex="1">
          <mxGeometry x="596.66" y="282.15999999999997" width="54.5" height="60" as="geometry" />
        </mxCell>
        <mxCell id="jgEByWnkUjhd4WbjguH3-31" value="&lt;b&gt;Buisness ready&lt;/b&gt;" style="html=1;verticalLabelPosition=bottom;align=center;labelBackgroundColor=#ffffff;verticalAlign=top;strokeWidth=2;strokeColor=#d79b00;shadow=0;dashed=0;shape=mxgraph.ios7.icons.data;fillColor=#ffcd28;gradientColor=#ffa500;opacity=60;" parent="1" vertex="1">
          <mxGeometry x="762.76" y="280" width="54.5" height="60" as="geometry" />
        </mxCell>
        <mxCell id="jgEByWnkUjhd4WbjguH3-41" value="" style="shape=singleArrow;whiteSpace=wrap;html=1;" parent="1" vertex="1">
          <mxGeometry x="505" y="300" width="65" height="35" as="geometry" />
        </mxCell>
        <mxCell id="jgEByWnkUjhd4WbjguH3-42" value="" style="shape=singleArrow;whiteSpace=wrap;html=1;" parent="1" vertex="1">
          <mxGeometry x="295" y="300" width="55" height="30" as="geometry" />
        </mxCell>
        <mxCell id="jgEByWnkUjhd4WbjguH3-43" value="" style="shape=singleArrow;whiteSpace=wrap;html=1;" parent="1" vertex="1">
          <mxGeometry x="690" y="300" width="65" height="35" as="geometry" />
        </mxCell>
        <mxCell id="jgEByWnkUjhd4WbjguH3-44" value="" style="shape=singleArrow;whiteSpace=wrap;html=1;" parent="1" vertex="1">
          <mxGeometry x="870" y="300" width="65" height="35" as="geometry" />
        </mxCell>
        <mxCell id="jgEByWnkUjhd4WbjguH3-46" value="" style="line;strokeWidth=1;rotatable=0;dashed=0;labelPosition=right;align=left;verticalAlign=middle;spacingTop=0;spacingLeft=6;points=[];portConstraint=eastwest;" parent="1" vertex="1">
          <mxGeometry x="120" y="512" width="140" height="10" as="geometry" />
        </mxCell>
        <mxCell id="jgEByWnkUjhd4WbjguH3-47" value="" style="line;strokeWidth=1;rotatable=0;dashed=0;labelPosition=right;align=left;verticalAlign=middle;spacingTop=0;spacingLeft=6;points=[];portConstraint=eastwest;fillColor=#fff2cc;gradientColor=#ffd966;strokeColor=#d6b656;" parent="1" vertex="1">
          <mxGeometry x="403.51" y="380.34" width="110" height="10" as="geometry" />
        </mxCell>
        <mxCell id="jgEByWnkUjhd4WbjguH3-48" value="" style="line;strokeWidth=1;rotatable=0;dashed=0;labelPosition=right;align=left;verticalAlign=middle;spacingTop=0;spacingLeft=6;points=[];portConstraint=eastwest;fillColor=#f5f5f5;gradientColor=#b3b3b3;strokeColor=#666666;" parent="1" vertex="1">
          <mxGeometry x="560" y="380.34" width="120" height="10" as="geometry" />
        </mxCell>
        <mxCell id="jgEByWnkUjhd4WbjguH3-49" value="" style="line;strokeWidth=1;rotatable=0;dashed=0;labelPosition=right;align=left;verticalAlign=middle;spacingTop=0;spacingLeft=6;points=[];portConstraint=eastwest;fillColor=#ffcd28;gradientColor=#ffa500;strokeColor=#d79b00;" parent="1" vertex="1">
          <mxGeometry x="735.01" y="380.34000000000003" width="109.99" height="10" as="geometry" />
        </mxCell>
        <mxCell id="jgEByWnkUjhd4WbjguH3-50" value="&lt;font style=&quot;font-size: 10px;&quot;&gt;&lt;b style=&quot;&quot;&gt;Object type &lt;/b&gt;: Tables&lt;/font&gt;&lt;div&gt;&lt;font style=&quot;font-size: 10px;&quot;&gt;&lt;br&gt;&lt;/font&gt;&lt;/div&gt;&lt;div&gt;&lt;b&gt;&lt;font style=&quot;font-size: 10px;&quot;&gt;Load :&amp;nbsp;&lt;/font&gt;&lt;/b&gt;&lt;/div&gt;&lt;div&gt;&lt;ul&gt;&lt;li&gt;&lt;span style=&quot;background-color: transparent; color: light-dark(rgb(0, 0, 0), rgb(255, 255, 255));&quot;&gt;&lt;font style=&quot;font-size: 10px;&quot;&gt;Batch processing&amp;nbsp;&lt;/font&gt;&lt;/span&gt;&lt;/li&gt;&lt;li&gt;&lt;span style=&quot;background-color: transparent; color: light-dark(rgb(0, 0, 0), rgb(255, 255, 255));&quot;&gt;&lt;font style=&quot;font-size: 10px;&quot;&gt;Full load&lt;/font&gt;&lt;/span&gt;&lt;/li&gt;&lt;li&gt;&lt;span style=&quot;background-color: transparent; color: light-dark(rgb(0, 0, 0), rgb(255, 255, 255));&quot;&gt;&lt;font style=&quot;font-size: 10px;&quot;&gt;Truncate&amp;nbsp; &amp;amp; insert&lt;/font&gt;&lt;/span&gt;&lt;/li&gt;&lt;/ul&gt;&lt;/div&gt;" style="text;html=1;whiteSpace=wrap;overflow=hidden;rounded=0;" parent="1" vertex="1">
          <mxGeometry x="403.51" y="390.34" width="112.5" height="150" as="geometry" />
        </mxCell>
        <mxCell id="jgEByWnkUjhd4WbjguH3-51" value="&lt;font style=&quot;font-size: 10px;&quot;&gt;No &lt;b&gt;tranformations&lt;/b&gt;&lt;/font&gt;&lt;div&gt;&lt;span style=&quot;font-size: 10px; background-color: transparent; color: light-dark(rgb(0, 0, 0), rgb(255, 255, 255));&quot;&gt;&amp;nbsp; &amp;nbsp; &amp;nbsp; &amp;nbsp;&lt;/span&gt;&lt;b style=&quot;font-size: 10px; background-color: transparent; color: light-dark(rgb(0, 0, 0), rgb(255, 255, 255));&quot;&gt;Data model&lt;/b&gt;&lt;span style=&quot;font-size: 10px; background-color: transparent; color: light-dark(rgb(0, 0, 0), rgb(255, 255, 255));&quot;&gt; : None(as-is)&lt;/span&gt;&lt;b style=&quot;font-size: 10px; background-color: transparent; color: light-dark(rgb(0, 0, 0), rgb(255, 255, 255));&quot;&gt;&amp;nbsp;&lt;/b&gt;&lt;/div&gt;" style="text;html=1;align=center;verticalAlign=middle;whiteSpace=wrap;rounded=0;" parent="1" vertex="1">
          <mxGeometry x="384.25" y="560" width="144" height="10" as="geometry" />
        </mxCell>
        <mxCell id="jgEByWnkUjhd4WbjguH3-53" value="&lt;span style=&quot;background-color: transparent; color: light-dark(rgb(0, 0, 0), rgb(255, 255, 255));&quot;&gt;&lt;font style=&quot;&quot; face=&quot;Helvetica&quot;&gt;&lt;b style=&quot;&quot;&gt;&lt;font style=&quot;font-size: 10px;&quot;&gt;&amp;nbsp;&lt;/font&gt;&lt;font style=&quot;font-size: 10px;&quot;&gt;ObjectType&lt;/font&gt;&lt;/b&gt;&lt;font style=&quot;font-size: 11px;&quot;&gt;:Views&lt;/font&gt;&lt;span style=&quot;font-size: 10px;&quot;&gt;&amp;nbsp;&lt;/span&gt;&lt;/font&gt;&lt;/span&gt;&lt;div&gt;&lt;span style=&quot;font-size: 10px;&quot;&gt;&lt;br&gt;&lt;/span&gt;&lt;div&gt;&lt;span style=&quot;background-color: transparent; color: light-dark(rgb(0, 0, 0), rgb(255, 255, 255));&quot;&gt;&lt;font style=&quot;font-size: 11px;&quot; face=&quot;Helvetica&quot;&gt;&lt;span style=&quot;font-size: 10px;&quot;&gt;&amp;nbsp;&lt;/span&gt;&lt;b style=&quot;&quot;&gt;&lt;font&gt;Load :&lt;/font&gt; &lt;/b&gt;&lt;span style=&quot;font-size: 10px;&quot;&gt;Same as&amp;nbsp; BRONZE LAYER&lt;/span&gt;&lt;/font&gt;&lt;/span&gt;&lt;/div&gt;&lt;div&gt;&lt;span style=&quot;background-color: transparent; color: light-dark(rgb(0, 0, 0), rgb(255, 255, 255));&quot;&gt;&lt;font style=&quot;font-size: 10px;&quot; face=&quot;Helvetica&quot;&gt;&amp;nbsp;&lt;/font&gt;&lt;/span&gt;&lt;/div&gt;&lt;div&gt;&lt;span style=&quot;background-color: transparent; color: light-dark(rgb(0, 0, 0), rgb(255, 255, 255));&quot;&gt;&lt;font style=&quot;font-size: 10px;&quot; face=&quot;Helvetica&quot;&gt;&lt;b&gt;Transformations&lt;/b&gt;:&amp;nbsp;&lt;/font&gt;&lt;/span&gt;&lt;div&gt;&lt;ul&gt;&lt;li&gt;&lt;span style=&quot;font-size: 10px;&quot;&gt;Data cleansing&lt;/span&gt;&lt;/li&gt;&lt;li&gt;&lt;font style=&quot;font-size: 10px;&quot;&gt;Data standarize&lt;/font&gt;&lt;/li&gt;&lt;li&gt;&lt;font style=&quot;font-size: 10px;&quot;&gt;Derived columns&lt;/font&gt;&lt;/li&gt;&lt;li&gt;&lt;font style=&quot;font-size: 10px;&quot;&gt;Data Enrichment&amp;nbsp;&lt;/font&gt;&lt;/li&gt;&lt;/ul&gt;&lt;/div&gt;&lt;div&gt;&lt;span style=&quot;background-color: transparent; color: light-dark(rgb(0, 0, 0), rgb(255, 255, 255));&quot;&gt;&lt;b&gt;&lt;font style=&quot;font-size: 10px;&quot;&gt;DataModel: None(as-is)&lt;/font&gt;&lt;/b&gt;&lt;/span&gt;&lt;/div&gt;&lt;div&gt;&lt;ul data-start=&quot;188&quot; data-end=&quot;239&quot;&gt;&lt;div&gt;&lt;div&gt;&lt;br&gt;&lt;/div&gt;&lt;/div&gt;&lt;/ul&gt;&lt;/div&gt;&lt;/div&gt;&lt;/div&gt;" style="text;whiteSpace=wrap;html=1;" parent="1" vertex="1">
          <mxGeometry x="560" y="390.34000000000003" width="120" height="185.67" as="geometry" />
        </mxCell>
        <mxCell id="jgEByWnkUjhd4WbjguH3-54" value="&lt;span style=&quot;background-color: transparent; color: light-dark(rgb(0, 0, 0), rgb(255, 255, 255));&quot;&gt;&lt;font style=&quot;&quot; face=&quot;Helvetica&quot;&gt;&lt;b style=&quot;&quot;&gt;&lt;font style=&quot;font-size: 10px;&quot;&gt;&amp;nbsp; &amp;nbsp; &amp;nbsp;&lt;/font&gt;&lt;font style=&quot;font-size: 10px;&quot;&gt;ObjectType&lt;/font&gt;&lt;/b&gt;&lt;font&gt;:Views&lt;/font&gt;&lt;/font&gt;&lt;/span&gt;&lt;div&gt;&lt;span style=&quot;background-color: transparent; color: light-dark(rgb(0, 0, 0), rgb(255, 255, 255));&quot;&gt;&lt;font style=&quot;&quot; face=&quot;Helvetica&quot;&gt;&lt;font&gt;&amp;nbsp;&lt;/font&gt;&lt;/font&gt;&lt;/span&gt;&lt;div&gt;&lt;span style=&quot;background-color: transparent; color: light-dark(rgb(0, 0, 0), rgb(255, 255, 255));&quot;&gt;&lt;font style=&quot;&quot; face=&quot;Helvetica&quot;&gt;&lt;span style=&quot;font-size: 10px;&quot;&gt;&amp;nbsp; &amp;nbsp; &amp;nbsp;&lt;/span&gt;&lt;b style=&quot;&quot;&gt;&lt;font style=&quot;font-size: 10px;&quot;&gt;No Load&lt;/font&gt;&lt;span style=&quot;font-size: 10px;&quot;&gt;&amp;nbsp;&lt;/span&gt;&lt;/b&gt;&lt;/font&gt;&lt;/span&gt;&lt;/div&gt;&lt;div&gt;&lt;div&gt;&lt;span style=&quot;background-color: transparent; color: light-dark(rgb(0, 0, 0), rgb(255, 255, 255));&quot;&gt;&lt;font style=&quot;font-size: 10px;&quot; face=&quot;Helvetica&quot;&gt;&amp;nbsp; &amp;nbsp; &amp;nbsp;&lt;b&gt;Transformations&lt;/b&gt;:&amp;nbsp;&lt;/font&gt;&lt;/span&gt;&lt;div&gt;&lt;ul&gt;&lt;li&gt;&lt;font style=&quot;font-size: 10px;&quot;&gt;DataIntegrations&lt;/font&gt;&lt;/li&gt;&lt;li&gt;&lt;font style=&quot;font-size: 10px;&quot;&gt;Aggregations&lt;/font&gt;&lt;/li&gt;&lt;li&gt;&lt;font style=&quot;font-size: 10px;&quot;&gt;BusinessLogics&lt;/font&gt;&lt;/li&gt;&lt;/ul&gt;&lt;/div&gt;&lt;div&gt;&lt;span style=&quot;background-color: transparent; color: light-dark(rgb(0, 0, 0), rgb(255, 255, 255));&quot;&gt;&lt;b&gt;&lt;font style=&quot;font-size: 10px;&quot;&gt;&amp;nbsp; &amp;nbsp; &amp;nbsp;DataModel:&amp;nbsp;&lt;/font&gt;&lt;/b&gt;&lt;/span&gt;&lt;/div&gt;&lt;div&gt;&lt;ul data-start=&quot;188&quot; data-end=&quot;239&quot;&gt;&lt;li&gt;&lt;span style=&quot;background-color: transparent; color: light-dark(rgb(0, 0, 0), rgb(255, 255, 255));&quot;&gt;&lt;b&gt;&lt;span style=&quot;font-weight: 400;&quot;&gt;&lt;font style=&quot;font-size: 10px;&quot;&gt;StarSchema&lt;/font&gt;&lt;/span&gt;&lt;/b&gt;&lt;/span&gt;&lt;/li&gt;&lt;div&gt;&lt;li&gt;&lt;span style=&quot;background-color: transparent; color: light-dark(rgb(0, 0, 0), rgb(255, 255, 255));&quot;&gt;&lt;font style=&quot;font-size: 10px;&quot;&gt;FlatTable&lt;/font&gt;&lt;/span&gt;&lt;/li&gt;&lt;li&gt;&lt;span style=&quot;background-color: transparent; color: light-dark(rgb(0, 0, 0), rgb(255, 255, 255));&quot;&gt;&lt;font style=&quot;font-size: 10px;&quot;&gt;AggregatedTable&lt;/font&gt;&lt;/span&gt;&lt;/li&gt;&lt;div&gt;&lt;br&gt;&lt;/div&gt;&lt;/div&gt;&lt;/ul&gt;&lt;/div&gt;&lt;/div&gt;&lt;/div&gt;&lt;/div&gt;" style="text;whiteSpace=wrap;html=1;" parent="1" vertex="1">
          <mxGeometry x="720" y="390.34" width="110.02" height="162" as="geometry" />
        </mxCell>
        <mxCell id="jgEByWnkUjhd4WbjguH3-55" value="&lt;b&gt;&amp;nbsp; &amp;nbsp; &amp;nbsp; &amp;nbsp; &amp;nbsp; &amp;nbsp; BI &amp;amp; Reporting&lt;/b&gt;" style="image;aspect=fixed;html=1;points=[];align=center;fontSize=12;image=img/lib/azure2/analytics/Power_BI_Embedded.svg;" parent="1" vertex="1">
          <mxGeometry x="974.37" y="182" width="51" height="68" as="geometry" />
        </mxCell>
        <mxCell id="uNygVss8eeRgvncTgZ-e-1" value="" style="verticalLabelPosition=bottom;aspect=fixed;html=1;shape=mxgraph.salesforce.analytics;" vertex="1" parent="1">
          <mxGeometry x="1010.0000000000001" y="200" width="51.02" height="50" as="geometry" />
        </mxCell>
        <mxCell id="uNygVss8eeRgvncTgZ-e-3" value="&lt;b&gt;Ad &amp;amp; Hoc&lt;/b&gt;&lt;div&gt;&lt;b&gt;SQL Queries&lt;/b&gt;&lt;/div&gt;" style="sketch=0;html=1;aspect=fixed;strokeColor=none;shadow=0;fillColor=#3B8DF1;verticalAlign=top;labelPosition=center;verticalLabelPosition=bottom;shape=mxgraph.gcp2.big_query" vertex="1" parent="1">
          <mxGeometry x="985.13" y="330" width="59.74" height="60.34" as="geometry" />
        </mxCell>
        <mxCell id="uNygVss8eeRgvncTgZ-e-4" value="&lt;b&gt;Machine Learning&lt;/b&gt;" style="image;aspect=fixed;html=1;points=[];align=center;fontSize=12;image=img/lib/azure2/ai_machine_learning/Machine_Learning.svg;" vertex="1" parent="1">
          <mxGeometry x="980.87" y="482" width="64" height="68" as="geometry" />
        </mxCell>
        <mxCell id="uNygVss8eeRgvncTgZ-e-5" value="" style="points=[];aspect=fixed;html=1;align=center;shadow=0;dashed=0;fillColor=#FF6A00;strokeColor=none;shape=mxgraph.alibaba_cloud.sqlserver;" vertex="1" parent="1">
          <mxGeometry x="350" y="70.10000000000002" width="39.6" height="54.900000000000006" as="geometry" />
        </mxCell>
        <mxCell id="uNygVss8eeRgvncTgZ-e-6" value="&lt;i&gt;&lt;font style=&quot;font-size: 15px;&quot;&gt;SQL Server&lt;/font&gt;&lt;/i&gt;" style="text;html=1;align=center;verticalAlign=middle;resizable=0;points=[];autosize=1;strokeColor=none;fillColor=none;" vertex="1" parent="1">
          <mxGeometry x="376" y="95" width="100" height="30" as="geometry" />
        </mxCell>
      </root>
    </mxGraphModel>
  </diagram>
</mxfile>
